<svg width="42" height="42" viewBox="0 0 42 42" fill="none" xmlns="http://www.w3.org/2000/svg">
<path d="M4.74173 8.9901L9.87924 4.25613C10.0606 4.08794 10.2736 3.95752 10.5057 3.87243C10.7378 3.78733 10.9845 3.74927 11.2315 3.76044C11.4784 3.77161 11.7207 3.83179 11.9442 3.93749C12.1677 4.0432 12.3681 4.19232 12.5336 4.37619L16.0785 8.30401C15.9072 8.52699 15.3764 9.04155 14.6914 9.89915L12.585 12.6606C12.5295 12.7285 12.4835 12.8035 12.448 12.8836C11.8632 13.9162 11.4989 15.0592 11.378 16.2402C11.2571 17.4212 11.3824 18.6145 11.7459 19.7444C12.5792 22.0264 13.9001 24.0986 15.6161 25.8163C17.196 27.6722 19.199 29.1195 21.4558 30.0357C22.5191 30.457 23.6676 30.6177 24.8055 30.5043C25.9435 30.3909 27.0379 30.0068 27.9975 29.3839L30.9088 27.48C31.8164 26.8797 32.3815 26.3823 32.6213 26.2279L36.1661 30.0871C36.3373 30.2666 36.4707 30.4787 36.5584 30.7107C36.6461 30.9428 36.6864 31.1902 36.6768 31.4382C36.6672 31.6862 36.6079 31.9297 36.5026 32.1543C36.3972 32.3789 36.2479 32.58 36.0634 32.7457L30.9259 37.4968C29.4703 38.8175 26.4734 38.9547 23.1683 37.9599C20.0469 37.0305 17.1931 35.3661 14.8455 33.1059L7.75573 25.4732C5.70434 22.9388 4.28387 19.9523 3.61148 16.76C2.90935 13.381 3.2861 10.3966 4.74173 8.9901ZM2.54973 6.69172C-0.258779 9.26453 -0.378653 13.5525 0.443348 17.4289C1.19356 21.2213 2.89029 24.7618 5.37535 27.7201L12.4137 35.4043C15.1315 38.126 18.4968 40.1094 22.1921 41.1673C26.0281 42.3337 30.2409 42.5567 33.0494 39.9667L38.1869 35.2327C39.1807 34.3107 39.7707 33.0328 39.8284 31.6772C39.8861 30.3216 39.4069 28.998 38.4951 27.9946L35.0188 24.1354C34.5744 23.5979 33.977 23.209 33.3063 23.0205C32.6432 22.8915 31.9561 22.9881 31.354 23.2949C30.5856 23.7451 29.8579 24.2616 29.1791 24.8386L26.285 26.7596C25.7545 27.1209 25.1392 27.3377 24.4997 27.3888C23.8602 27.4399 23.2184 27.3236 22.6374 27.0512C20.8656 26.2745 19.2955 25.1009 18.0479 23.6208C16.668 22.2298 15.5946 20.5645 14.8969 18.7325C14.6384 18.0271 14.5411 17.2726 14.6123 16.5246C14.6834 15.7765 14.9211 15.054 15.3079 14.4101L17.3457 11.8545C17.9723 11.2169 18.5451 10.5285 19.0582 9.79624C19.4112 9.22179 19.562 8.54548 19.4864 7.87521C19.3665 7.17298 19.0313 6.52555 18.5274 6.02279L14.914 2.24934C13.9934 1.25398 12.7175 0.663086 11.3641 0.605265C10.0106 0.547444 8.68913 1.02737 7.68723 1.9406L2.54973 6.69172Z" fill="#F37656"/>
<path d="M5.08427 4.30774C4.80027 4.62291 4.64307 5.03237 4.64307 5.45693C4.64307 5.88148 4.80027 6.29094 5.08427 6.60611L12.174 14.3417C12.478 14.6381 12.881 14.811 13.3049 14.8269C13.7289 14.8427 14.1436 14.7004 14.4688 14.4274C14.6254 14.2846 14.7523 14.1122 14.8422 13.9201C14.9321 13.7281 14.9833 13.5201 14.9929 13.3082C15.0024 13.0963 14.9701 12.8845 14.8978 12.6852C14.8255 12.4858 14.7146 12.3026 14.5715 12.1462L7.39615 4.41065C7.25308 4.24869 7.07895 4.11721 6.8841 4.02403C6.68926 3.93086 6.4777 3.87789 6.262 3.86829C6.0463 3.85869 5.83087 3.89264 5.62855 3.96814C5.42622 4.04363 5.24112 4.15913 5.08427 4.30774Z" fill="#F37656"/>
<path d="M26.3709 27.4801C26.0869 27.7953 25.9297 28.2047 25.9297 28.6293C25.9297 29.0538 26.0869 29.4633 26.3709 29.7785L33.4778 37.514C33.7685 37.8302 34.1726 38.0178 34.6014 38.0354C35.0301 38.0531 35.4483 37.8995 35.764 37.6084C36.0796 37.3173 36.2669 36.9124 36.2846 36.483C36.3022 36.0536 36.1488 35.6347 35.8582 35.3186L28.6828 27.583C28.5397 27.4211 28.3656 27.2896 28.1707 27.1964C27.9759 27.1032 27.7643 27.0503 27.5486 27.0407C27.3329 27.0311 27.1175 27.065 26.9152 27.1405C26.7128 27.216 26.5277 27.3315 26.3709 27.4801Z" fill="#F37656"/>
<path d="M27.2247 7.27494C26.9889 7.49328 26.8237 7.77724 26.7504 8.09033C26.677 8.40343 26.6988 8.73134 26.8129 9.03193C26.9271 9.33252 27.1284 9.59205 27.391 9.77716C27.6535 9.96227 27.9654 10.0645 28.2864 10.0707C29.298 10.1197 30.2492 10.5673 30.9326 11.316C31.6159 12.0647 31.9759 13.0536 31.934 14.0672C31.9262 14.2789 31.96 14.4901 32.0336 14.6887C32.1073 14.8873 32.2192 15.0695 32.3631 15.2248C32.5071 15.3801 32.6801 15.5055 32.8724 15.5938C33.0647 15.6821 33.2725 15.7316 33.4839 15.7395C33.6952 15.7474 33.9061 15.7135 34.1044 15.6397C34.3028 15.566 34.4846 15.4538 34.6397 15.3097C34.7947 15.1656 34.9199 14.9922 35.0081 14.7996C35.0962 14.607 35.1457 14.3989 35.1535 14.1872C35.212 13.2407 35.0782 12.2922 34.7603 11.3989C34.4424 10.5057 33.947 9.68623 33.304 8.99015C32.0331 7.61858 30.2729 6.80493 28.4063 6.72607C27.9556 6.74601 27.531 6.94324 27.2247 7.27494Z" fill="#F37656"/>
<path d="M27.3982 0.534099C27.1911 0.763659 27.0544 1.04804 27.0042 1.35332C26.9541 1.65859 26.9927 1.97186 27.1155 2.25575C27.2383 2.53964 27.44 2.78216 27.6966 2.95437C27.9532 3.12658 28.2539 3.22121 28.5627 3.22697C29.9567 3.28428 31.3256 3.61663 32.5911 4.20496C33.8565 4.79329 34.9936 5.62603 35.937 6.65543C36.8805 7.68482 37.6118 8.89062 38.089 10.2037C38.5662 11.5167 38.7799 12.9112 38.7179 14.3072C38.6939 14.7511 38.843 15.1871 39.1337 15.523C39.4245 15.859 39.8341 16.0688 40.2762 16.1082C40.7304 16.1082 41.166 15.9275 41.4871 15.6058C41.8083 15.2841 41.9887 14.8479 41.9887 14.393C42.0644 12.5716 41.7796 10.7532 41.1508 9.04245C40.522 7.33172 39.5616 5.76244 38.3249 4.42493C37.0882 3.08743 35.5996 2.00811 33.9448 1.24911C32.2899 0.490105 30.5016 0.0664006 28.6826 0.002385C28.4424 -0.0107117 28.2024 0.0302517 27.9802 0.122265C27.7579 0.214279 27.559 0.355004 27.3982 0.534099Z" fill="#F37656"/>
<path d="M24.3984 15.0275C24.2421 15.1716 24.1157 15.3452 24.0264 15.5383C23.9371 15.7314 23.8866 15.9402 23.8778 16.1528C23.8691 16.3654 23.9022 16.5777 23.9754 16.7775C24.0486 16.9773 24.1603 17.1607 24.3042 17.3173C24.4482 17.4738 24.6215 17.6004 24.8142 17.6899C25.007 17.7793 25.2155 17.8299 25.4278 17.8387C25.6401 17.8474 25.852 17.8142 26.0515 17.7409C26.251 17.6677 26.4341 17.5557 26.5904 17.4116L27.8748 16.2281C28.1905 15.937 28.3777 15.5322 28.3954 15.1027C28.413 14.6733 28.2597 14.2545 27.969 13.9383C27.6783 13.6221 27.2741 13.4346 26.8454 13.4169C26.4166 13.3992 25.9985 13.5528 25.6828 13.844L24.3984 15.0275Z" fill="#F37656"/>
</svg>
