<svg width="50" height="64" viewBox="0 0 50 64" fill="none" xmlns="http://www.w3.org/2000/svg">
<path fill-rule="evenodd" clip-rule="evenodd" d="M35.2791 48.0001C34.6015 47.9914 33.9364 48.184 33.3675 48.5538C32.7986 48.9237 32.3512 49.4542 32.0817 50.0786C31.8122 50.7031 31.7326 51.3937 31.8528 52.0635C31.973 52.7333 32.2877 53.3525 32.7573 53.8432C33.227 54.3339 33.8306 54.6741 34.4922 54.8212C35.1539 54.9683 35.8441 54.9156 36.476 54.6697C37.1079 54.4239 37.6534 53.9959 38.0438 53.4396C38.4342 52.8832 38.6521 52.2234 38.6701 51.543C38.6791 51.0867 38.5986 50.6331 38.4331 50.2081C38.2675 49.7831 38.0202 49.395 37.7053 49.066C37.3904 48.737 37.0141 48.4736 36.5978 48.2907C36.1815 48.1078 35.7334 48.0091 35.2791 48.0001ZM36.417 36.5716C35.8707 36.6021 35.3536 36.8293 34.9605 37.2116L21.3055 50.9259C21.0806 51.1153 20.8975 51.3496 20.7676 51.614C20.6378 51.8783 20.5641 52.1669 20.5513 52.4614C20.5384 52.7559 20.5867 53.0498 20.693 53.3246C20.7994 53.5993 20.9614 53.8488 21.1689 54.0573C21.377 54.2676 21.6261 54.4324 21.9006 54.5414C22.1751 54.6503 22.4692 54.701 22.7642 54.6903C23.0591 54.6796 23.3487 54.6076 23.6147 54.479C23.8807 54.3504 24.1173 54.1679 24.3096 53.943L37.9646 40.2287C38.2135 39.9195 38.372 39.5469 38.4226 39.1525C38.4731 38.7581 38.4137 38.3573 38.2509 37.9948C38.0882 37.6323 37.8284 37.3223 37.5006 37.0993C37.1728 36.8762 36.7898 36.7489 36.3942 36.7316L36.417 36.5716ZM23.8317 36.5716C23.1539 36.5761 22.4927 36.7818 21.9311 37.1628C21.3694 37.5437 20.9325 38.083 20.6752 38.7127C20.4179 39.3424 20.3518 40.0345 20.4851 40.7019C20.6185 41.3693 20.9453 41.9822 21.4245 42.4635C21.9037 42.9448 22.514 43.273 23.1785 43.4069C23.8429 43.5408 24.532 43.4744 25.159 43.216C25.786 42.9576 26.323 42.5188 26.7023 41.9547C27.0816 41.3906 27.2864 40.7265 27.2909 40.0459C27.297 39.5879 27.2117 39.1334 27.0401 38.7091C26.8684 38.2848 26.6138 37.8993 26.2914 37.5755C25.9689 37.2516 25.5851 36.9959 25.1627 36.8235C24.7402 36.6511 24.2876 36.5654 23.8317 36.5716ZM9.08427 33.6459C9.08427 41.1659 9.08427 47.8173 9.08427 54.0116C7.80981 53.4401 7.19533 53.1659 5.51122 52.4573C4.95377 52.1268 4.54243 51.5956 4.36069 50.9715C4.17894 50.3475 4.24041 49.6775 4.53261 49.0973C6.64913 41.8744 7.3774 39.4744 9.08427 33.6459ZM29.5667 15.7716C30.0627 15.7751 30.5546 15.8601 31.0233 16.023L28.0419 19.0173C27.6923 19.4273 27.5092 19.9544 27.5289 20.4938C27.5486 21.0332 27.7698 21.5454 28.1483 21.9285C28.5269 22.3116 29.0352 22.5375 29.5721 22.5614C30.109 22.5853 30.6352 22.4053 31.046 22.0573L34.1184 19.0173C34.2716 19.5059 34.3558 20.0137 34.3687 20.5259C34.3687 21.4632 34.0927 22.3797 33.5755 23.1599C33.0583 23.9402 32.323 24.5495 31.462 24.9113C30.601 25.2731 29.6527 25.3712 28.7363 25.1932C27.82 25.0152 26.9765 24.5692 26.3118 23.9111C25.6472 23.2531 25.191 22.4124 25.0007 21.4947C24.8104 20.577 24.8945 19.6233 25.2423 18.7535C25.5902 17.8837 26.1863 17.1365 26.9557 16.6059C27.7251 16.0754 28.6335 15.7851 29.5667 15.7716ZM29.5667 4.34301C30.4221 4.36837 31.2358 4.71978 31.8426 5.32587L36.8494 10.1944L34.1184 12.8459C32.7607 11.9602 31.1852 11.4697 29.5667 11.4287C27.5478 11.403 25.5777 12.0521 23.9663 13.2739C22.3549 14.4957 21.1936 16.2209 20.6652 18.1781C20.1368 20.1352 20.2712 22.2133 21.0473 24.0853C21.8234 25.9573 23.1972 27.5171 24.9525 28.5192C26.7078 29.5214 28.745 29.909 30.7436 29.6211C32.7422 29.3332 34.5888 28.3862 35.9929 26.929C37.397 25.4718 38.2789 23.5871 38.4999 21.5714C38.7208 19.5558 38.2683 17.5236 37.2135 15.7944L39.8307 13.143C41.6742 14.9944 43.9728 17.2802 45.0424 18.3773C45.2663 18.6025 45.4439 18.8698 45.565 19.1639C45.686 19.4581 45.7482 19.7733 45.7479 20.0916C45.7479 26.5373 45.7479 47.8173 45.7479 57.2573C45.7529 57.5729 45.6929 57.8861 45.5714 58.1772C45.45 58.4683 45.2699 58.731 45.0424 58.9487C44.8182 59.1736 44.552 59.352 44.2591 59.4736C43.9663 59.5951 43.6524 59.6576 43.3355 59.6573H15.9118C15.5949 59.6576 15.281 59.5951 14.9881 59.4736C14.6953 59.352 14.4291 59.1736 14.2049 58.9487C13.9774 58.731 13.7973 58.4683 13.6758 58.1772C13.5544 57.8861 13.4943 57.5729 13.4994 57.2573C13.4994 47.8401 13.4994 26.5602 13.4994 20.0916C13.4991 19.7733 13.5613 19.4581 13.6823 19.1639C13.8034 18.8698 13.9809 18.6025 14.2049 18.3773C16.9131 15.6344 23.3082 9.23444 27.3364 5.18873C27.9434 4.62008 28.7369 4.29478 29.5667 4.27444V4.34301ZM47.7734 0.000154654C47.499 0.00817344 47.2289 0.0709044 46.9789 0.1847C46.7288 0.298495 46.5038 0.461084 46.3169 0.663012L39.8535 7.20015L34.9149 2.28587C33.4965 0.878844 31.5832 0.0898469 29.5895 0.0898469C27.5959 0.0898469 25.6825 0.878844 24.2641 2.28587C20.1448 6.40015 13.8408 12.7544 11.1325 15.4744C10.4973 16.1289 10.0017 16.9067 9.67599 17.7602C9.67599 17.7602 4.71468 33.7602 0.36784 48.0001C-0.215077 49.6213 -0.168757 51.4034 0.49758 52.9918C1.16392 54.5801 2.4014 55.8582 3.96365 56.5716C6.48982 57.623 8.51532 58.4916 9.31186 58.8573C9.59068 60.1092 10.2136 61.2575 11.1098 62.1716C12.4125 63.3855 14.1351 64.0415 15.9118 64.0001H43.2217C44.9828 63.987 46.6706 63.2909 47.9327 62.0573C48.58 61.4488 49.1005 60.7172 49.4638 59.9049C49.8272 59.0927 50.0261 58.216 50.0492 57.3259C50.0492 47.9087 50.0492 26.6059 50.0492 20.1602C50.0494 19.2809 49.8765 18.4103 49.5407 17.5983C49.2048 16.7863 48.7125 16.049 48.092 15.4287L42.8576 10.2173L49.3665 3.68015C49.6755 3.37563 49.8852 2.98412 49.9679 2.55736C50.0507 2.13059 50.0026 1.68865 49.83 1.28993C49.6574 0.8912 49.3684 0.55445 49.0012 0.324167C48.634 0.0938835 48.2059 -0.0190962 47.7734 0.000154654Z" fill="#F37656"/>
</svg>
