<svg width="43" height="42" viewBox="0 0 43 42" fill="none" xmlns="http://www.w3.org/2000/svg">
<g clip-path="url(#clip0_15_566)">
<path fill-rule="evenodd" clip-rule="evenodd" d="M3.80109 19.1487L15.3661 27.1558L10.4611 32.0741C10.3273 32.2022 10.2203 32.3557 10.1465 32.5255C10.0726 32.6954 10.0334 32.8783 10.0311 33.0635C10.0287 33.2487 10.0633 33.4325 10.1328 33.6042C10.2023 33.7759 10.3053 33.9321 10.4358 34.0635C10.5663 34.195 10.7217 34.2992 10.8929 34.3699C11.0642 34.4407 11.2478 34.4767 11.4331 34.4757C11.6184 34.4748 11.8016 34.4369 11.9721 34.3644C12.1426 34.2919 12.2969 34.1862 12.4261 34.0534L17.7061 28.7753L21.2011 31.2044C21.4346 31.3663 21.712 31.453 21.9961 31.453C22.2802 31.453 22.5576 31.3663 22.7911 31.2044L26.2861 28.7753L31.5511 34.0534C31.6811 34.1833 31.8354 34.2864 32.0053 34.3568C32.1752 34.4271 32.3572 34.4633 32.5411 34.4633C32.725 34.4633 32.907 34.4271 33.0769 34.3568C33.2467 34.2864 33.4011 34.1833 33.5311 34.0534C33.6611 33.9234 33.7642 33.7691 33.8346 33.5993C33.905 33.4295 33.9412 33.2475 33.9412 33.0637C33.9412 32.8799 33.905 32.6979 33.8346 32.5281C33.7642 32.3583 33.6611 32.204 33.5311 32.0741L28.6261 27.1558L40.1911 19.1487V34.5632C40.1951 35.1715 40.0784 35.7745 39.8478 36.3375C39.6172 36.9005 39.2773 37.4121 38.8477 37.843C38.4181 38.2738 37.9073 38.6153 37.3449 38.8476C36.7825 39.0799 36.1796 39.1985 35.5711 39.1965H8.49609C7.88756 39.1985 7.28467 39.0799 6.72227 38.8476C6.15986 38.6153 5.6491 38.2738 5.2195 37.843C4.7899 37.4121 4.44998 36.9005 4.21939 36.3375C3.98881 35.7745 3.87213 35.1715 3.87609 34.5632L3.80109 19.1487ZM14.4961 15.0851C14.1491 15.1211 13.8278 15.2843 13.5942 15.5432C13.3606 15.8021 13.2313 16.1385 13.2313 16.4871C13.2313 16.8358 13.3606 17.1721 13.5942 17.4311C13.8278 17.69 14.1491 17.8532 14.4961 17.8891H29.4961C29.6925 17.9095 29.8909 17.8883 30.0786 17.8272C30.2663 17.766 30.439 17.666 30.5856 17.5339C30.7322 17.4017 30.8494 17.2403 30.9296 17.0599C31.0099 16.8796 31.0513 16.6845 31.0513 16.4871C31.0513 16.2898 31.0099 16.0947 30.9296 15.9143C30.8494 15.734 30.7322 15.5726 30.5856 15.4404C30.439 15.3082 30.2663 15.2083 30.0786 15.1471C29.8909 15.0859 29.6925 15.0648 29.4961 15.0851H14.4961ZM35.4961 14.4404L39.0361 16.5696L35.4961 19.0287V14.4404ZM8.49609 14.4404V18.9388L4.98609 16.5696L8.49609 14.4404ZM14.3161 7.49785C13.9382 7.52171 13.5852 7.69468 13.3348 7.97869C13.0845 8.26271 12.9572 8.63451 12.9811 9.01231C13.005 9.39011 13.178 9.74296 13.4621 9.99323C13.7462 10.2435 14.1182 10.3707 14.4961 10.3468H21.9961C22.374 10.3468 22.7365 10.1968 23.0037 9.92961C23.271 9.66247 23.4211 9.30014 23.4211 8.92234C23.4211 8.54455 23.271 8.18222 23.0037 7.91508C22.7365 7.64793 22.374 7.49785 21.9961 7.49785H14.3161ZM27.9061 5.23366L31.0711 8.99732H27.9061V5.23366ZM12.9961 2.80453H25.1611V10.4968C25.1611 10.8706 25.3096 11.2291 25.5741 11.4934C25.8385 11.7578 26.1971 11.9063 26.5711 11.9063H32.7061V20.993L21.9961 28.3404L11.3311 20.993V4.49892C11.33 4.28642 11.372 4.0759 11.4545 3.88005C11.537 3.6842 11.6583 3.50707 11.8111 3.35933C11.9539 3.18337 12.1346 3.04204 12.3399 2.94595C12.5451 2.84986 12.7695 2.80151 12.9961 2.80453ZM26.4961 0.00052953H12.9961C11.8026 0.00052953 10.658 0.474466 9.81411 1.31808C8.9702 2.16169 8.49609 3.30587 8.49609 4.49892V11.2465L1.76109 15.2951C1.53862 15.4092 1.35053 15.5805 1.21609 15.7913C1.08166 16.0021 1.00574 16.2448 0.996094 16.4946V34.5632C1.01586 36.5386 1.81475 38.4263 3.21913 39.8162C4.62352 41.206 6.5199 41.9856 8.49609 41.9855H35.6461C37.5962 41.9466 39.4544 41.1498 40.8266 39.7641C42.1988 38.3784 42.977 36.5129 42.9961 34.5632V16.4946C42.9946 16.2256 42.9161 15.9627 42.7699 15.7369C42.6237 15.511 42.4159 15.3317 42.1711 15.2201L35.4961 11.1715V10.8567C35.5539 10.6302 35.5525 10.3926 35.4921 10.1668C35.4317 9.94103 35.3143 9.73452 35.1511 9.56711L27.6511 0.570326C27.5213 0.386681 27.3477 0.238367 27.146 0.138857C26.9442 0.0393483 26.7209 -0.00820115 26.4961 0.00052953Z" fill="#F37656"/>
</g>
<defs>
<clipPath id="clip0_15_566">
<rect width="42" height="42" fill="white" transform="translate(0.996094)"/>
</clipPath>
</defs>
</svg>
