<svg width="240" height="43" viewBox="0 0 240 43" fill="none" xmlns="http://www.w3.org/2000/svg">
<path d="M27.5576 23.2189C29.6065 23.9594 31.2114 25.123 32.3725 26.7097C33.5335 28.2612 34.114 30.1476 34.114 32.369C34.114 35.613 32.8505 38.1164 30.3236 39.8795C27.7966 41.6425 24.1428 42.524 19.362 42.524H0V5.50061H18.3376C22.9134 5.50061 26.3965 6.38212 28.7869 8.14514C31.1773 9.8729 32.3725 12.2177 32.3725 15.1796C32.3725 16.9426 31.9456 18.5293 31.0919 19.9397C30.2724 21.3149 29.0942 22.408 27.5576 23.2189ZM10.0396 13.064V20.2042H17.0058C20.4206 20.2042 22.128 19.0053 22.128 16.6076C22.128 14.2452 20.4206 13.064 17.0058 13.064H10.0396ZM18.5425 34.9606C22.0939 34.9606 23.8696 33.7089 23.8696 31.2054C23.8696 28.7019 22.0939 27.4502 18.5425 27.4502H10.0396V34.9606H18.5425Z" fill="#F37656"/>
<path d="M40.3289 13.8573H50.0612V42.524H40.3289V13.8573ZM45.1951 10.6839C43.4194 10.6839 41.9851 10.1726 40.8924 9.15006C39.7996 8.12751 39.2533 6.85814 39.2533 5.34194C39.2533 3.82575 39.7996 2.55637 40.8924 1.53382C41.9851 0.511275 43.4194 0 45.1951 0C46.9708 0 48.405 0.493645 49.4977 1.48093C50.5905 2.43296 51.1368 3.66708 51.1368 5.18327C51.1368 6.76999 50.5905 8.09225 49.4977 9.15006C48.405 10.1726 46.9708 10.6839 45.1951 10.6839Z" fill="#F37656"/>
<path d="M70.4094 32.4748L67.541 35.4895V42.524H57.8088V3.27921H67.541V23.8536L77.4781 13.8573H89.0031L77.4781 26.1279L89.9763 42.524H78.1952L70.4094 32.4748Z" fill="#F37656"/>
<path d="M121.473 28.2435C121.473 28.3141 121.422 29.1427 121.32 30.7294H101.138C101.548 32.2103 102.333 33.3563 103.494 34.1673C104.69 34.943 106.175 35.3309 107.951 35.3309C109.283 35.3309 110.427 35.1369 111.383 34.7491C112.373 34.3612 113.363 33.7265 114.354 32.845L119.476 38.3456C116.778 41.4485 112.834 43 107.643 43C104.399 43 101.548 42.3653 99.0893 41.0959C96.6307 39.8266 94.7184 38.0635 93.3524 35.8069C92.0206 33.5502 91.3548 30.9938 91.3548 28.1378C91.3548 25.3169 92.0036 22.7958 93.3012 20.5744C94.633 18.3178 96.4599 16.5547 98.782 15.2854C101.104 14.016 103.716 13.3813 106.619 13.3813C109.385 13.3813 111.895 13.9807 114.149 15.1796C116.402 16.3432 118.178 18.0533 119.476 20.31C120.808 22.5314 121.473 25.1759 121.473 28.2435ZM106.67 20.5215C105.168 20.5215 103.904 20.9623 102.88 21.8438C101.889 22.7253 101.258 23.9241 100.985 25.4403H112.356C112.083 23.9241 111.434 22.7253 110.409 21.8438C109.419 20.9623 108.173 20.5215 106.67 20.5215Z" fill="#F37656"/>
<path d="M160.217 42.524L160.114 22.9016L150.894 38.8745H146.387L137.218 23.4305V42.524H127.844V5.50061H136.194L148.794 26.8684L161.088 5.50061H169.437L169.539 42.524H160.217Z" fill="#F37656"/>
<path d="M189.51 13.3813C194.12 13.3813 197.637 14.4744 200.062 16.6605C202.486 18.8114 203.698 22.1259 203.698 26.6039V42.524H194.632V38.8216C193.232 41.6072 190.5 43 186.437 43C184.285 43 182.424 42.6121 180.853 41.8364C179.282 41.0607 178.087 40.0205 177.268 38.7159C176.482 37.376 176.09 35.8598 176.09 34.1673C176.09 31.4522 177.097 29.3542 179.112 27.8733C181.126 26.3571 184.234 25.599 188.434 25.599H193.966C193.795 22.5666 191.832 21.0504 188.076 21.0504C186.744 21.0504 185.395 21.2796 184.029 21.738C182.663 22.1611 181.502 22.7606 180.546 23.5363L177.268 16.7134C178.804 15.6556 180.665 14.8446 182.851 14.2804C185.071 13.681 187.29 13.3813 189.51 13.3813ZM189.151 36.6531C190.278 36.6531 191.268 36.3711 192.122 35.8069C192.976 35.2427 193.591 34.4141 193.966 33.321V30.8352H189.766C186.932 30.8352 185.515 31.8048 185.515 33.7442C185.515 34.6257 185.839 35.3309 186.488 35.8598C187.137 36.3887 188.024 36.6531 189.151 36.6531Z" fill="#F37656"/>
<path d="M228.885 42.524L223.916 35.0135L218.589 42.524H208.037L218.589 28.1907L208.345 13.8573H219.306L224.224 21.1033L229.346 13.8573H239.641L229.397 27.8204L240 42.524H228.885Z" fill="#F37656"/>
</svg>
