<svg width="42" height="42" viewBox="0 0 42 42" fill="none" xmlns="http://www.w3.org/2000/svg">
<g clip-path="url(#clip0_15_576)">
<path fill-rule="evenodd" clip-rule="evenodd" d="M27 17.766C27.3238 17.7412 27.6473 17.8173 27.9287 17.9842C28.21 18.1511 28.4361 18.4013 28.5777 18.7022C28.7193 19.0031 28.7698 19.3408 28.7228 19.6716C28.6757 20.0025 28.5331 20.3111 28.3136 20.5575C28.0941 20.8039 27.8078 20.9766 27.4918 21.0534C27.1758 21.1301 26.8446 21.1073 26.5414 20.9879C26.2381 20.8685 25.9766 20.658 25.7909 20.3837C25.6053 20.1095 25.5039 19.784 25.5 19.4497C25.4876 19.0231 25.6375 18.6084 25.9177 18.2939C26.1978 17.9794 26.5862 17.79 27 17.766ZM27 14.8156C26.1314 14.8309 25.2864 15.1092 24.5703 15.6157C23.8542 16.1222 23.2987 16.8346 22.9732 17.664C22.6476 18.4934 22.5663 19.4032 22.7394 20.2799C22.9125 21.1566 23.3324 21.9614 23.9467 22.594C24.561 23.2266 25.3425 23.6589 26.1938 23.8372C27.0451 24.0155 27.9286 23.9318 28.734 23.5965C29.5394 23.2612 30.2312 22.6892 30.7231 21.9518C31.2149 21.2144 31.4851 20.3442 31.5 19.4497C31.5 18.2207 31.0259 17.042 30.182 16.1729C29.3381 15.3039 28.1935 14.8156 27 14.8156ZM27 13.0547C27.8164 13.0464 28.6261 13.2063 29.3815 13.5251C30.1369 13.8439 30.8227 14.3152 31.3986 14.9111C31.9745 15.507 32.4288 16.2156 32.7347 16.995C33.0406 17.7745 33.192 18.6091 33.18 19.4497C33.0075 21.9472 32.3115 24.3766 31.14 26.5707C30.5978 27.6451 29.8884 28.6209 29.04 29.4593C28.5103 30.029 27.794 30.3758 27.03 30.4324C26.2691 30.3809 25.5557 30.033 25.035 29.4593C24.1866 28.6209 23.4772 27.6451 22.935 26.5707C21.7568 24.3795 21.0604 21.9486 20.895 19.4497C20.8891 18.6202 21.0426 17.7977 21.3467 17.0296C21.6509 16.2615 22.0996 15.5629 22.6671 14.9742C23.2346 14.3855 23.9096 13.9183 24.6533 13.5994C25.3969 13.2806 26.1945 13.1165 27 13.1165V13.0547ZM16.5 3.33863L23.205 5.65566C24.0106 5.91983 24.8397 6.10093 25.68 6.1963V10.3515C23.5945 10.7144 21.6998 11.8222 20.3283 13.4802C18.9569 15.1383 18.1963 17.2408 18.18 19.4188C18.3081 22.4105 19.1256 25.3279 20.565 27.93C21.2511 29.2943 22.1592 30.5273 23.25 31.5755C23.9634 32.2416 24.8074 32.742 25.725 33.0429V35.3909C25.725 35.5795 25.7611 35.7663 25.8312 35.9406C25.9013 36.1149 26.004 36.2733 26.1336 36.4067C26.2631 36.54 26.4169 36.6459 26.5862 36.7181C26.7554 36.7903 26.9368 36.8274 27.12 36.8274C27.3032 36.8274 27.4846 36.7903 27.6538 36.7181C27.8231 36.6459 27.9769 36.54 28.1064 36.4067C28.236 36.2733 28.3387 36.1149 28.4088 35.9406C28.4789 35.7663 28.515 35.5795 28.515 35.3909V33.0429C29.4353 32.7485 30.2806 32.2472 30.99 31.5755C32.0855 30.5279 32.9987 29.295 33.69 27.93C35.0928 25.3279 35.884 22.4235 36 19.4497C35.9943 17.2637 35.2385 15.1502 33.8661 13.4825C32.4937 11.8148 30.5931 10.7004 28.5 10.3361V6.21174C29.3408 6.11115 30.1699 5.92487 30.975 5.65566L37.755 3.32318C37.9275 3.26029 38.1122 3.24167 38.2932 3.26891C38.4742 3.29615 38.6461 3.36845 38.7938 3.47953C38.9416 3.59061 39.0608 3.73712 39.1412 3.90637C39.2215 4.07562 39.2606 4.2625 39.255 4.4508V32.8576C39.2549 33.6202 39.0215 34.3634 38.588 34.9817C38.1545 35.6001 37.5429 36.0621 36.84 36.3022L30 38.6192C28.0526 39.2871 25.9474 39.2871 24 38.6192L17.295 36.3022C16.4927 36.0284 15.6621 35.8522 14.82 35.777V7.97268C14.8167 7.60737 14.6784 7.25708 14.4331 6.99308C14.1879 6.72907 13.8542 6.5712 13.5 6.55157C13.3162 6.55153 13.1343 6.58929 12.9649 6.66263C12.7955 6.73597 12.642 6.84342 12.5134 6.97867C12.3849 7.11392 12.2839 7.27425 12.2163 7.45025C12.1487 7.62625 12.116 7.81437 12.12 8.00358V35.8079C11.2595 35.9204 10.4141 36.1329 9.6 36.4412L4.23 38.5266C4.06655 38.6177 3.88203 38.6611 3.69636 38.6522C3.51069 38.6432 3.33093 38.5821 3.17651 38.4756C3.02209 38.369 2.89888 38.221 2.82018 38.0476C2.74149 37.8742 2.7103 37.682 2.73 37.4916V9.11575C2.74478 8.329 2.99261 7.56568 3.44029 6.92798C3.88798 6.29028 4.51416 5.80863 5.235 5.54753L10.575 3.44676C11.5101 3.08187 12.5001 2.88843 13.5 2.87522C14.5183 2.85378 15.5327 3.01047 16.5 3.33863ZM13.5 0.0021079C12.1668 0.0150701 10.8463 0.271334 9.6 0.759004L4.23 2.81344C2.98658 3.29687 1.91571 4.15896 1.16002 5.28487C0.404324 6.41078 -0.000313645 7.74707 1.8241e-07 9.11575V37.4916C0.00885085 38.1331 0.16624 38.7632 0.459088 39.3294C0.751936 39.8957 1.17179 40.3818 1.68375 40.7474C2.19572 41.113 2.78501 41.3475 3.40267 41.4314C4.02032 41.5153 4.6485 41.4461 5.235 41.2298L10.575 39.1599C12.478 38.4212 14.5695 38.3776 16.5 39.0363L23.205 41.3533C25.719 42.2034 28.431 42.2034 30.945 41.3533L37.725 39.0363C38.9818 38.6005 40.0743 37.7701 40.8492 36.6618C41.6241 35.5536 42.0422 34.2232 42.045 32.8576V4.4508C42.0371 3.80843 41.8831 3.17691 41.5953 2.60696C41.3074 2.037 40.8938 1.54448 40.3877 1.16896C39.8815 0.793429 39.2969 0.545353 38.6808 0.444647C38.0647 0.343941 37.4342 0.393412 36.84 0.589088L30 2.92156C28.0526 3.58941 25.9474 3.58941 24 2.92156L17.34 0.604535C16.1025 0.180469 14.8039 -0.0232578 13.5 0.0021079Z" fill="#F37656"/>
</g>
<defs>
<clipPath id="clip0_15_576">
<rect width="42" height="42" fill="white"/>
</clipPath>
</defs>
</svg>
