<svg width="24" height="24" viewBox="0 0 24 24" fill="none" xmlns="http://www.w3.org/2000/svg">
<path d="M22.9091 0H1.09091C0.489697 0 0 0.911915 0 2.03149C0 3.15107 0.489697 4.06299 1.09091 4.06299H22.9091C23.5103 4.06299 24 3.15107 24 2.03149C24 0.911915 23.5103 0 22.9091 0Z" fill="#0C1310"/>
<path d="M22.9091 10.1196H1.09091C0.489697 10.1196 0 11.0315 0 12.1511C0 13.2707 0.489697 14.1826 1.09091 14.1826H22.9091C23.5103 14.1826 24 13.2707 24 12.1511C24 11.0315 23.5103 10.1196 22.9091 10.1196Z" fill="#0C1310"/>
<path d="M22.9091 19.937H1.09091C0.489697 19.937 0 20.8489 0 21.9685C0 23.0881 0.489697 24 1.09091 24H22.9091C23.5103 24 24 23.0881 24 21.9685C24 20.8489 23.5103 19.937 22.9091 19.937Z" fill="#0C1310"/>
</svg>
