<svg width="24" height="24" viewBox="0 0 24 24" fill="none" xmlns="http://www.w3.org/2000/svg">
<path d="M9.81514 19.6258C11.9841 19.6254 14.0908 18.9006 15.8013 17.5663L22.1313 23.6722C22.2333 23.7765 22.3552 23.8592 22.4897 23.9155C22.6243 23.9718 22.7688 24.0006 22.9146 24C23.0604 23.9994 23.2047 23.9696 23.3388 23.9122C23.4729 23.8548 23.5941 23.7711 23.6952 23.666C23.7964 23.5609 23.8754 23.4365 23.9277 23.3003C23.9799 23.164 24.0043 23.0187 23.9994 22.8729C23.9945 22.727 23.9603 22.5837 23.899 22.4513C23.8377 22.3189 23.7504 22.2001 23.6424 22.1021L17.3753 16.0544C18.7931 14.3335 19.5826 12.1807 19.6139 9.95079C19.6452 7.72084 18.9164 5.54672 17.5476 3.78664C16.1788 2.02655 14.2516 0.785492 12.0835 0.267923C9.91544 -0.249646 7.63583 -0.0128479 5.62026 0.939304C3.60468 1.89146 1.97338 3.50216 0.995104 5.50606C0.0168313 7.50995 -0.250052 9.78749 0.238423 11.9635C0.726898 14.1394 1.94159 16.084 3.68238 17.4768C5.42317 18.8696 7.58621 19.6276 9.81514 19.6258ZM9.81514 2.18065C11.3252 2.18066 12.8013 2.62881 14.0567 3.46842C15.3122 4.30802 16.2905 5.50135 16.8679 6.89742C17.4453 8.29348 17.5959 9.82955 17.3006 11.3113C17.0053 12.793 16.2774 14.1538 15.2089 15.2215C14.1405 16.2891 12.7796 17.0157 11.2983 17.3093C9.81703 17.6029 8.28201 17.4503 6.88746 16.8708C5.49291 16.2912 4.30149 15.3109 3.46395 14.0537C2.6264 12.7965 2.18037 11.319 2.18229 9.80808C2.18485 7.78338 2.98985 5.84234 4.42073 4.41066C5.85161 2.97897 7.79157 2.17353 9.81514 2.17096V2.18065Z" fill="#0C1310"/>
</svg>
