<svg width="74" height="64" viewBox="0 0 74 64" fill="none" xmlns="http://www.w3.org/2000/svg">
<path d="M28.2521 49.1736C27.6234 49.2075 27.0317 49.4823 26.599 49.9413C26.1663 50.4002 25.9255 51.0083 25.9264 51.6402C25.9212 52.1355 26.0631 52.6212 26.3341 53.0352C26.605 53.4492 26.9927 53.7729 27.4477 53.9649C27.9028 54.1569 28.4044 54.2085 28.8888 54.1131C29.3731 54.0178 29.8182 53.7798 30.1672 53.4295C30.5162 53.0792 30.7534 52.6326 30.8484 52.1465C30.9434 51.6604 30.892 51.1569 30.7007 50.7003C30.5094 50.2437 30.1869 49.8546 29.7743 49.5827C29.3618 49.3107 28.8778 49.1683 28.3843 49.1736H28.2521ZM28.3843 44.2138C29.8479 44.2138 31.2786 44.6493 32.4955 45.4653C33.7124 46.2814 34.6609 47.4412 35.221 48.7982C35.7811 50.1552 35.9276 51.6484 35.6421 53.089C35.3566 54.5296 34.6518 55.8529 33.6169 56.8915C32.582 57.9301 31.2634 58.6374 29.828 58.9239C28.3925 59.2105 26.9046 59.0634 25.5524 58.5013C24.2003 57.9392 23.0445 56.9874 22.2314 55.7661C21.4183 54.5448 20.9843 53.109 20.9843 51.6402C20.9808 50.664 21.1698 49.6967 21.5405 48.7941C21.9111 47.8915 22.4561 47.0714 23.1439 46.3811C23.8318 45.6908 24.6489 45.1439 25.5483 44.7719C26.4477 44.4 27.4115 44.2103 28.3843 44.2138ZM57.4557 14.1632C57.1342 14.1632 56.8158 14.2272 56.5191 14.3515C56.2224 14.4757 55.9532 14.6578 55.727 14.8872C55.5009 15.1167 55.3224 15.3888 55.2017 15.6879C55.0811 15.987 55.0208 16.3072 55.0243 16.6298C55.0243 17.1188 55.1692 17.5968 55.4404 18.003C55.7117 18.4091 56.0971 18.7253 56.5478 18.9111C56.9984 19.097 57.494 19.1443 57.9714 19.047C58.4489 18.9496 58.8868 18.712 59.2295 18.3644C59.5721 18.0168 59.8041 17.5748 59.8959 17.0946C59.9878 16.6144 59.9353 16.1176 59.7452 15.6674C59.5551 15.2171 59.236 14.8338 58.8284 14.566C58.4207 14.2981 57.9429 14.1579 57.4557 14.1632ZM10.915 8.48728C10.4225 8.48731 9.94119 8.63423 9.5321 8.90937C9.123 9.18451 8.80463 9.57547 8.6174 10.0326C8.43017 10.4897 8.38254 10.9923 8.48056 11.4767C8.57858 11.961 8.81782 12.4052 9.1679 12.7528C9.51799 13.1004 9.96311 13.3357 10.4467 13.4289C10.9304 13.5221 11.4307 13.4689 11.8842 13.2761C12.3376 13.0834 12.7237 12.7597 12.9935 12.3462C13.2633 11.9327 13.4045 11.4481 13.3993 10.9539C13.3923 10.2973 13.1275 9.66995 12.6624 9.20811C12.1972 8.74627 11.5693 8.48725 10.915 8.48728ZM57.1386 4.95973H57.4557C60.4837 5.00174 63.3723 6.2438 65.4913 8.41495C67.6103 10.5861 68.7878 13.5101 68.7669 16.5492C68.7459 19.5882 67.5283 22.4956 65.3796 24.6372C63.2309 26.7787 60.3254 27.9806 57.2971 27.9806C54.2688 27.9806 51.3634 26.7787 49.2147 24.6372C47.066 22.4956 45.8483 19.5882 45.8274 16.5492C45.8065 13.5101 46.984 10.5861 49.103 8.41495C51.222 6.2438 54.1106 5.00174 57.1386 4.95973ZM24.6843 4.95973C24.6843 5.61392 24.9432 6.24132 25.4042 6.7039C25.8651 7.16649 26.4903 7.42636 27.1421 7.42636C27.794 7.42636 28.4192 7.16649 28.8801 6.7039C29.341 6.24132 29.6 5.61392 29.6 4.95973H34.5421C34.6054 5.57321 34.8931 6.14137 35.3495 6.55442C35.8059 6.96747 36.3986 7.19608 37.0132 7.19608C37.6278 7.19608 38.2205 6.96747 38.6769 6.55442C39.1333 6.14137 39.421 5.57321 39.4843 4.95973H45.6686C42.6049 8.05498 40.8853 12.2406 40.885 16.6033C40.898 20.9712 42.6147 25.1603 45.6675 28.2735C48.7202 31.3867 52.8663 33.1766 57.2179 33.2598L54.1521 36.3099C53.9231 36.08 53.6511 35.8977 53.3519 35.7733C53.0526 35.6489 52.7318 35.5848 52.4079 35.5848C52.0839 35.5848 51.7631 35.6489 51.4639 35.7733C51.1646 35.8977 50.8926 36.08 50.6636 36.3099C50.4345 36.5398 50.2528 36.8127 50.1288 37.1131C50.0049 37.4134 49.9411 37.7353 49.9411 38.0604C49.9411 38.3855 50.0049 38.7074 50.1288 39.0078C50.2528 39.3082 50.4345 39.5811 50.6636 39.8109L47.175 43.2855C46.7124 42.8212 46.0849 42.5604 45.4307 42.5604C44.7765 42.5604 44.149 42.8212 43.6864 43.2855C43.2238 43.7497 42.9639 44.3794 42.9639 45.036C42.9639 45.6925 43.2238 46.3222 43.6864 46.7865L40.6207 49.8897C40.2479 47.4534 39.1594 45.1842 37.4943 43.3723C35.8292 41.5605 33.6634 40.2883 31.2738 39.7187C28.8843 39.1491 26.3798 39.3079 24.0807 40.1748C21.7816 41.0417 19.7925 42.5773 18.3679 44.5851L17.02 41.031C17.6298 40.7918 18.12 40.3194 18.3827 39.7175C18.6453 39.1156 18.659 38.4337 18.4207 37.8217C18.1824 37.2097 17.7116 36.7178 17.1119 36.4542C16.5122 36.1906 15.8327 36.1768 15.2229 36.416L13.4257 31.801C13.9772 31.5193 14.404 31.0412 14.6227 30.4602C14.8414 29.8793 14.8361 29.2374 14.608 28.6601C14.3799 28.0828 13.9454 27.6118 13.3894 27.3391C12.8335 27.0665 12.1961 27.0119 11.6021 27.186L9.54071 21.8814C9.99841 21.9085 10.4573 21.9085 10.915 21.8814C13.8101 21.8744 16.5851 20.719 18.6348 18.6669C20.6844 16.6149 21.8425 13.8329 21.8564 10.9274C21.8506 8.80478 21.2258 6.7303 20.0593 4.95973H24.6843ZM10.915 4.95973C11.9062 4.95095 12.884 5.18876 13.7612 5.65191C14.6384 6.11507 15.3876 6.78913 15.9418 7.61384C16.496 8.43856 16.838 9.38824 16.9372 10.378C17.0363 11.3677 16.8895 12.3667 16.51 13.2856C16.1304 14.2046 15.5299 15.0148 14.7622 15.6439C13.9944 16.273 13.0832 16.7014 12.1102 16.8908C11.1371 17.0802 10.1324 17.0247 9.18597 16.7292C8.23951 16.4337 7.38074 15.9075 6.68643 15.1976C6.13054 14.6466 5.68991 13.9898 5.39038 13.2656C5.09085 12.5414 4.93845 11.7645 4.94214 10.9804C4.93513 10.1901 5.08465 9.40617 5.382 8.67426C5.67935 7.94235 6.11862 7.27702 6.6743 6.71688C7.22999 6.15675 7.89101 5.71298 8.61899 5.41133C9.34697 5.10969 10.1274 4.95618 10.915 4.95973ZM10.915 -7.49603e-05C8.01988 0.0139191 5.24771 1.17613 3.20301 3.2331C1.1583 5.29008 0.00694268 8.07496 0 10.9804C0.00199322 13.7015 1.02044 16.323 2.85429 18.3273L16.0686 52.0911C16.125 54.5253 16.8965 56.8886 18.2865 58.8844C19.6764 60.8801 21.6227 62.4194 23.8812 63.309C26.1397 64.1986 28.6097 64.399 30.9813 63.8849C33.3528 63.3708 35.5202 62.1651 37.2114 60.4193L67.9479 29.3609C70.5904 27.1856 72.4967 24.2425 73.405 20.9359C74.3132 17.6292 74.1788 14.1215 73.0201 10.8947C71.8614 7.66787 69.7354 4.88037 66.9342 2.91528C64.133 0.950182 60.7941 -0.0960532 57.3764 -0.0796439L10.915 -7.49603e-05Z" fill="#F37656"/>
</svg>
