<svg width="62" height="64" viewBox="0 0 62 64" fill="none" xmlns="http://www.w3.org/2000/svg">
<path d="M12.9518 52.5714H30.0166V59.7943H12.9518V52.5714ZM27.8921 42.4914V48.2286H15.0078V42.4229L20.3991 45.3486C20.712 45.502 21.0558 45.5817 21.4042 45.5817C21.7527 45.5817 22.0965 45.502 22.4094 45.3486L27.8921 42.4914ZM32.1411 41.4857L36.0019 42.1714C36.7403 42.4218 37.3809 42.8992 37.8322 43.5354C38.2834 44.1716 38.5223 44.9342 38.5148 45.7143L36.4816 56.7771C36.3076 57.6084 35.9484 58.3897 35.4308 59.0629C35.3125 59.2551 35.1429 59.4105 34.9411 59.5115C34.7392 59.6125 34.5132 59.655 34.2885 59.6343V50.2857C34.2825 49.7198 34.0536 49.1792 33.6516 48.7812C33.2495 48.3832 32.7067 48.16 32.1411 48.16V41.4857ZM10.8272 41.4857V48.3429C10.2616 48.3428 9.71887 48.5661 9.3168 48.9641C8.91474 49.3621 8.68585 49.9027 8.67983 50.4686V59.84C8.45205 59.8598 8.22317 59.8171 8.01787 59.7164C7.81256 59.6157 7.63861 59.4609 7.51476 59.2686C7.04103 58.5783 6.70729 57.8017 6.53244 56.9829L4.45359 45.7143C4.43496 44.9234 4.66844 44.147 5.12024 43.4977C5.57203 42.8484 6.21866 42.3599 6.96649 42.1029L10.8272 41.4857ZM26.6128 35.6343L27.4123 37.92L21.4956 41.1429L15.5789 37.8514L16.3784 35.5657C19.7246 36.5102 23.2666 36.5102 26.6128 35.5657V35.6343ZM49.2745 25.6229C48.8553 25.6274 48.4468 25.7559 48.1005 25.9922C47.7541 26.2285 47.4854 26.562 47.3281 26.9508C47.1708 27.3396 47.1319 27.7663 47.2165 28.1771C47.301 28.5879 47.5051 28.9646 47.8032 29.2596C48.1012 29.5546 48.4797 29.7548 48.8912 29.835C49.3027 29.9151 49.7287 29.8717 50.1156 29.7102C50.5025 29.5487 50.8329 29.2762 51.0654 28.9271C51.2978 28.5781 51.4219 28.168 51.4219 27.7486C51.4219 27.4675 51.3662 27.1892 51.258 26.9298C51.1498 26.6704 50.9913 26.435 50.7916 26.2373C50.5919 26.0396 50.355 25.8835 50.0946 25.7781C49.8342 25.6726 49.5554 25.6198 49.2745 25.6229ZM49.2745 21.2571C50.5396 21.2571 51.7763 21.6325 52.8282 22.3357C53.8801 23.039 54.7 24.0385 55.1841 25.208C55.6682 26.3774 55.7949 27.6642 55.5481 28.9057C55.3013 30.1472 54.6921 31.2876 53.7975 32.1826C52.9029 33.0777 51.7632 33.6872 50.5224 33.9342C49.2816 34.1811 47.9955 34.0544 46.8267 33.57C45.6579 33.0856 44.6589 32.2653 43.9561 31.2128C43.2532 30.1603 42.8781 28.9229 42.8781 27.6571C42.872 26.815 43.0333 25.98 43.3526 25.2008C43.6719 24.4216 44.1428 23.7136 44.738 23.1181C45.3332 22.5226 46.0407 22.0514 46.8195 21.7319C47.5983 21.4125 48.4328 21.2511 49.2745 21.2571ZM21.4956 17.6C24.3715 17.5933 27.2361 17.9621 30.0166 18.6971V26.1486C29.9468 27.5018 29.3769 28.7808 28.4175 29.7371C27.486 30.5575 26.3996 31.1824 25.2224 31.5751C24.0452 31.9677 22.8012 32.1199 21.5641 32.0229C20.3265 32.1279 19.0805 31.9794 17.9021 31.5864C16.7238 31.1934 15.6379 30.5642 14.7108 29.7371C13.7374 28.7882 13.1581 27.5065 13.0888 26.1486V18.6971C15.8325 17.9724 18.6579 17.6037 21.4956 17.6ZM49.0918 14.9486C48.5483 14.9778 48.0369 15.2147 47.6628 15.6102C47.2888 16.0057 47.0807 16.5298 47.0815 17.0743V17.2114C45.7216 17.4805 44.4311 18.025 43.2893 18.8114L43.175 18.6971C42.7782 18.294 42.2375 18.0651 41.672 18.0608C41.1065 18.0566 40.5625 18.2772 40.1596 18.6743C39.7567 19.0714 39.5279 19.6123 39.5236 20.1781C39.5193 20.7439 39.7399 21.2883 40.1367 21.6914L40.2738 21.8286C39.5154 22.9725 38.9877 24.2536 38.7204 25.6H38.5376C38.2548 25.5969 37.9741 25.6504 37.7122 25.7573C37.4503 25.8642 37.2124 26.0224 37.0124 26.2225C36.8123 26.4226 36.6543 26.6607 36.5475 26.9227C36.4406 27.1848 36.3872 27.4656 36.3902 27.7486C36.3962 28.3144 36.6251 28.8551 37.0272 29.2531C37.4293 29.6511 37.972 29.8743 38.5376 29.8743H38.7661C39.0421 31.2006 39.5778 32.4591 40.3423 33.5771L40.1367 33.7829C39.7515 34.1853 39.5397 34.723 39.5468 35.2801C39.5539 35.8373 39.7793 36.3694 40.1746 36.7619C40.5699 37.1544 41.1034 37.3759 41.6603 37.3788C42.2172 37.3816 42.7529 37.1656 43.1522 36.7771L43.3578 36.5714C44.4827 37.3131 45.7388 37.8328 47.0586 38.1029V38.4229C47.0646 38.9827 47.2911 39.5175 47.6889 39.9112C48.0867 40.3049 48.6236 40.5257 49.1831 40.5257C49.7448 40.5258 50.2842 40.3058 50.6857 39.9127C51.0871 39.5196 51.3186 38.9847 51.3305 38.4229V38.1029C52.6499 37.8312 53.9057 37.3116 55.0313 36.5714L55.2369 36.7771C55.4321 36.9811 55.6659 37.144 55.9248 37.2565C56.1836 37.3691 56.4622 37.4289 56.7444 37.4324C57.0265 37.436 57.3066 37.3834 57.5682 37.2775C57.8297 37.1716 58.0676 37.0146 58.2679 36.8157C58.4682 36.6168 58.6269 36.38 58.7347 36.1191C58.8425 35.8582 58.8973 35.5784 58.8959 35.296C58.8944 35.0137 58.8368 34.7345 58.7263 34.4747C58.6158 34.2149 58.4547 33.9797 58.2524 33.7829L58.0468 33.5771C58.8022 32.454 59.3371 31.1974 59.6231 29.8743H59.8515C60.1506 29.9053 60.4528 29.8731 60.7387 29.7798C61.0245 29.6865 61.2876 29.5342 61.5108 29.3327C61.7341 29.1313 61.9126 28.8852 62.0348 28.6103C62.157 28.3354 62.2201 28.038 62.2201 27.7371C62.2201 27.4363 62.157 27.1389 62.0348 26.864C61.9126 26.5891 61.7341 26.343 61.5108 26.1415C61.2876 25.9401 61.0245 25.7878 60.7387 25.6945C60.4528 25.6012 60.1506 25.569 59.8515 25.6H59.6688C59.3954 24.2555 58.8681 22.9754 58.1154 21.8286L58.2524 21.6914C58.6376 21.289 58.8494 20.7513 58.8424 20.1942C58.8353 19.637 58.6098 19.1049 58.2146 18.7124C57.8193 18.3199 57.2858 18.0984 56.7289 18.0955C56.172 18.0927 55.6362 18.3087 55.2369 18.6971H55.1227C53.9826 17.9276 52.7016 17.3916 51.3534 17.12V17.0743C51.3478 16.5201 51.1283 15.9895 50.741 15.5934C50.3536 15.1973 49.8282 14.9662 49.2745 14.9486H49.0918ZM21.2672 6.85714H21.4956C23.5544 6.8502 25.5454 7.59333 27.0966 8.94774C28.6479 10.3022 29.6533 12.1752 29.9252 14.2171C24.3706 12.9369 18.5978 12.9369 13.0431 14.2171C13.31 12.21 14.2858 10.3646 15.7942 9.01472C17.3025 7.66482 19.2439 6.8995 21.2672 6.85714ZM31.6157 36.8914L30.4507 33.5314C30.7935 33.2599 31.1214 32.9699 31.433 32.6629C33.2151 30.9218 34.2409 28.5489 34.2885 26.0571V20.1143C34.7593 20.2369 35.2581 20.1922 35.6997 19.988C36.1412 19.7837 36.4983 19.4325 36.71 18.9943C36.9585 18.4901 36.9996 17.9086 36.8245 17.3745C36.6494 16.8403 36.2721 16.3961 35.7734 16.1371C35.7734 16.1371 35.2252 15.8857 34.2885 15.52V15.4743C34.2737 12.4527 33.1967 9.53259 31.2462 7.22573C29.2956 4.91887 26.5959 3.37235 23.6201 2.85714V2.14857C23.6202 1.58267 23.3971 1.03961 22.9993 0.637326C22.6015 0.235042 22.0612 0.00602019 21.4956 0C20.9401 0.0179024 20.4138 0.252875 20.0294 0.654529C19.6451 1.05618 19.4333 1.59254 19.4396 2.14857V2.85714C16.4471 3.35303 13.726 4.89122 11.7572 7.19995C9.7883 9.50869 8.69833 12.4394 8.67983 15.4743V15.6114C7.7432 15.9771 7.21778 16.2286 7.21778 16.2286C6.73318 16.4527 6.35069 16.8512 6.1464 17.3447C5.94212 17.8382 5.93102 18.3906 6.11531 18.8919C6.2996 19.3932 6.66578 19.8068 7.14099 20.0502C7.61619 20.2937 8.16557 20.3492 8.67983 20.2057V26.1486C8.73592 28.6431 9.76972 31.0155 11.5582 32.7543C11.8619 33.0612 12.1822 33.3512 12.5177 33.6229L11.3526 36.9829L5.86995 37.9886C2.44328 38.9029 -0.754955 42.3314 0.158826 45.76L2.44328 57.76C2.74903 59.2708 3.40646 60.6882 4.36222 61.8971C4.89502 62.5301 5.55454 63.0443 6.29822 63.4065C7.04191 63.7687 7.85323 63.9709 8.67983 64H34.2885C35.1307 63.9837 35.9597 63.7877 36.72 63.425C37.4804 63.0624 38.1546 62.5415 38.6975 61.8971C39.66 60.6895 40.3251 59.2723 40.6393 57.76L42.9238 45.76C43.8604 42.2857 40.6393 38.9029 37.2126 37.9886L31.6157 36.8914Z" fill="#F37656"/>
</svg>
