<svg width="64" height="64" viewBox="0 0 64 64" fill="none" xmlns="http://www.w3.org/2000/svg">
<path fill-rule="evenodd" clip-rule="evenodd" d="M53.3029 49.0514C53.0237 49.0574 52.7484 49.1183 52.4928 49.2306C52.2371 49.343 52.0062 49.5046 51.813 49.7062C51.6198 49.9079 51.4683 50.1456 51.367 50.4058C51.2658 50.6661 51.2168 50.9437 51.2229 51.2229V53.3486C51.2229 53.9124 51.4468 54.453 51.8455 54.8517C52.2441 55.2503 52.7848 55.4743 53.3486 55.4743C53.9124 55.4743 54.453 55.2503 54.8517 54.8517C55.2503 54.453 55.4743 53.9124 55.4743 53.3486V51.2229C55.4805 50.936 55.4286 50.6508 55.3217 50.3846C55.2148 50.1183 55.0551 49.8764 54.8522 49.6735C54.6493 49.4706 54.4074 49.3109 54.1412 49.204C53.8749 49.0971 53.5897 49.0452 53.3029 49.0514ZM44.7771 49.0514C44.496 49.0544 44.2183 49.1131 43.96 49.2241C43.7017 49.3351 43.4681 49.4963 43.2725 49.6982C43.0769 49.9002 42.9233 50.1389 42.8207 50.4006C42.718 50.6623 42.6682 50.9418 42.6743 51.2229V53.3486C42.729 53.8773 42.9778 54.3669 43.3725 54.7229C43.7673 55.0788 44.2799 55.2758 44.8114 55.2758C45.3429 55.2758 45.8556 55.0788 46.2503 54.7229C46.6451 54.3669 46.8938 53.8773 46.9486 53.3486V51.2229C46.9548 50.936 46.9029 50.6508 46.796 50.3846C46.6891 50.1183 46.5294 49.8764 46.3265 49.6735C46.1236 49.4706 45.8817 49.3109 45.6154 49.204C45.3492 49.0971 45.064 49.0452 44.7771 49.0514ZM12.8 44.8H29.8743V51.2229H12.8V44.8ZM44.8 40.5257C44.5008 40.4947 44.1984 40.5269 43.9124 40.6202C43.6264 40.7135 43.3632 40.8658 43.1398 41.0673C42.9164 41.2687 42.7378 41.5149 42.6155 41.7897C42.4933 42.0646 42.4301 42.362 42.4301 42.6629C42.4301 42.9637 42.4933 43.2611 42.6155 43.536C42.7378 43.8109 42.9164 44.057 43.1398 44.2585C43.3632 44.4599 43.6264 44.6122 43.9124 44.7055C44.1984 44.7988 44.5008 44.831 44.8 44.8H53.3486C53.6478 44.831 53.9502 44.7988 54.2362 44.7055C54.5222 44.6122 54.7854 44.4599 55.0088 44.2585C55.2322 44.057 55.4108 43.8109 55.533 43.536C55.6553 43.2611 55.7185 42.9637 55.7185 42.6629C55.7185 42.362 55.6553 42.0646 55.533 41.7897C55.4108 41.5149 55.2322 41.2687 55.0088 41.0673C54.7854 40.8658 54.5222 40.7135 54.2362 40.6202C53.9502 40.5269 53.6478 40.4947 53.3486 40.5257H44.8ZM12.8 40.5257C11.6701 40.5376 10.5898 40.9918 9.79077 41.7908C8.99175 42.5898 8.53761 43.6701 8.52571 44.8V51.2229C8.5377 52.3506 8.99259 53.4285 9.79223 54.2239C10.5919 55.0192 11.6722 55.4684 12.8 55.4743H29.8743C31.0021 55.4684 32.0824 55.0192 32.8821 54.2239C33.6817 53.4285 34.1366 52.3506 34.1486 51.2229V44.8C34.1367 43.6701 33.6825 42.5898 32.8835 41.7908C32.0845 40.9918 31.0042 40.5376 29.8743 40.5257H12.8ZM23.4743 4.27429H40.5257V11.4286C40.1295 10.9955 39.6475 10.6496 39.1104 10.413C38.5732 10.1764 37.9927 10.0542 37.4057 10.0542C36.8188 10.0542 36.2382 10.1764 35.7011 10.413C35.1639 10.6496 34.6819 10.9955 34.2857 11.4286L32 13.8286L29.7143 11.4286C29.3188 11.0065 28.8409 10.67 28.3101 10.4399C27.7793 10.2099 27.207 10.0912 26.6286 10.0912C26.0501 10.0912 25.4778 10.2099 24.947 10.4399C24.4163 10.67 23.9384 11.0065 23.5429 11.4286V11.4286L23.4743 4.27429ZM12.8 4.27429H19.2229V15.3829C19.2199 15.9412 19.3875 16.4872 19.7031 16.9478C20.0188 17.4083 20.4674 17.7616 20.9892 17.9604C21.511 18.1592 22.081 18.194 22.6231 18.0601C23.1652 17.9263 23.6535 17.6302 24.0229 17.2114L26.6743 14.2857L29.3257 17.2114C29.6663 17.585 30.0811 17.8834 30.5435 18.0876C31.006 18.2918 31.5059 18.3973 32.0114 18.3973C32.5169 18.3973 33.0169 18.2918 33.4794 18.0876C33.9418 17.8834 34.3566 17.585 34.6971 17.2114L37.3486 14.2857L39.9771 17.2114C40.35 17.6264 40.8397 17.9189 41.3818 18.0505C41.9239 18.1822 42.4932 18.1468 43.0149 17.949C43.5365 17.7512 43.9862 17.4003 44.3047 16.9423C44.6233 16.4843 44.796 15.9407 44.8 15.3829V4.27429H51.2229C52.3431 4.26819 53.4534 4.48473 54.4893 4.91131C55.5251 5.33789 56.4659 5.96603 57.257 6.75923C58.0481 7.55244 58.6737 8.49491 59.0975 9.53191C59.5213 10.5689 59.7348 11.6798 59.7257 12.8V51.2229C59.7349 52.342 59.5212 53.4518 59.0971 54.4875C58.673 55.5233 58.047 56.4643 57.2557 57.2557C56.4643 58.047 55.5233 58.673 54.4875 59.0971C53.4518 59.5212 52.342 59.7349 51.2229 59.7257H12.8C11.6798 59.7348 10.5689 59.5213 9.53191 59.0975C8.49491 58.6737 7.55244 58.0481 6.75923 57.257C5.96603 56.4659 5.33789 55.5251 4.91131 54.4893C4.48473 53.4534 4.26819 52.3431 4.27429 51.2229V12.8C4.26515 11.6778 4.47944 10.5651 4.90466 9.52657C5.32988 8.48806 5.95753 7.54456 6.75105 6.75105C7.54456 5.95753 8.48806 5.32988 9.52657 4.90466C10.5651 4.47944 11.6778 4.26515 12.8 4.27429V4.27429ZM12.8 0C9.40894 0.0120465 6.1602 1.36448 3.76234 3.76234C1.36448 6.1602 0.0120465 9.40894 0 12.8V51.2229C0.0120766 54.6118 1.36525 57.8582 3.76375 60.2524C6.16226 62.6466 9.41103 63.994 12.8 64H51.2229C54.6097 63.994 57.8561 62.6459 60.251 60.251C62.6459 57.8561 63.994 54.6097 64 51.2229V12.8C63.994 9.41103 62.6466 6.16226 60.2524 3.76375C57.8582 1.36525 54.6118 0.0120766 51.2229 0H12.8Z" fill="#F37656"/>
</svg>
